<?xml version="1.0" encoding="UTF-8" standalone="no"?><!DOCTYPE svg PUBLIC "-//W3C//DTD SVG 1.1//EN" "http://www.w3.org/Graphics/SVG/1.1/DTD/svg11.dtd"><svg width="100%" height="100%" viewBox="0 0 3000 1200" version="1.1" xmlns="http://www.w3.org/2000/svg" xmlns:xlink="http://www.w3.org/1999/xlink" xml:space="preserve" xmlns:serif="http://www.serif.com/" style="fill-rule:evenodd;clip-rule:evenodd;stroke-linecap:round;stroke-linejoin:round;stroke-miterlimit:1.5;"><g id="Full-Logo---Stacked" serif:id="Full Logo - Stacked"><g id="Logo"><path d="M114.98,114.114l414.561,228.201l0,655.718l-420.338,-236.867l5.777,-647.052Z" style="fill:#4c1bc9;stroke:#4c1bc9;stroke-width:8.33px;"/><path d="M1006.649,114.114l-414.561,228.201l0,655.718l420.338,-236.867l-5.777,-647.052Z" style="fill:#4c1bc9;stroke:#4c1bc9;stroke-width:8.33px;"/><path d="M80.298,823.698l487.361,262.188l478.107,-268.357" style="fill:none;stroke:#4c1bc9;stroke-width:12.5px;"/></g><g transform="matrix(2.843784,0,0,2.843784,-2135.167758,-1558.180555)"><text x="1158.015px" y="719.298px" style="font-family:'Geist-ExtraBold', 'Geist';font-weight:800;font-size:166.667px;fill:#4c1bc9;">Op<tspan x="1395.515px 1497.182px " y="719.298px 719.298px ">en</tspan></text><g transform="matrix(166.666667,0,0,166.666667,1784.848793,885.965058)"></g><text x="1158.015px" y="885.965px" style="font-family:'Geist-Regular', 'Geist';font-size:166.667px;">C<tspan x="1273.849px 1367.682px 1463.515px 1520.015px 1605.682px 1697.515px " y="885.965px 885.965px 885.965px 885.965px 885.965px 885.965px ">ourses</tspan></text></g></g></svg>