<?xml version="1.0" encoding="UTF-8" standalone="no"?><!DOCTYPE svg PUBLIC "-//W3C//DTD SVG 1.1//EN" "http://www.w3.org/Graphics/SVG/1.1/DTD/svg11.dtd"><svg width="100%" height="100%" viewBox="0 0 3000 675" version="1.1" xmlns="http://www.w3.org/2000/svg" xmlns:xlink="http://www.w3.org/1999/xlink" xml:space="preserve" xmlns:serif="http://www.serif.com/" style="fill-rule:evenodd;clip-rule:evenodd;stroke-linecap:round;stroke-linejoin:round;stroke-miterlimit:1.5;"><g id="Full-Logo" serif:id="Full Logo"><g id="Logo"><path d="M87.35,70.363l227.923,125.464l0,360.509l-231.099,-130.228l3.176,-355.745Z" style="fill:#4c1bc9;stroke:#4c1bc9;stroke-width:8.33px;"/><path d="M577.584,70.363l-227.923,125.464l0,360.509l231.099,-130.228l-3.176,-355.745Z" style="fill:#4c1bc9;stroke:#4c1bc9;stroke-width:8.33px;"/><path d="M68.282,460.488l267.948,144.149l262.86,-147.541" style="fill:none;stroke:#4c1bc9;stroke-width:12.5px;"/></g><g transform="matrix(2.105072,0,0,2.105072,-1741.924733,-1084.851916)"><text x="1158.015px" y="719.298px" style="font-family:'Geist-ExtraBold', 'Geist';font-weight:800;font-size:166.667px;fill:#4c1bc9;">Op<tspan x="1395.515px 1497.182px " y="719.298px 719.298px ">en</tspan></text><g transform="matrix(166.666667,0,0,166.666667,2227.51546,719.298391)"></g><text x="1600.682px" y="719.298px" style="font-family:'Geist-Regular', 'Geist';font-size:166.667px;fill:#fff;">C<tspan x="1716.515px 1810.349px 1906.182px 1962.682px 2048.349px 2140.182px " y="719.298px 719.298px 719.298px 719.298px 719.298px 719.298px ">ourses</tspan></text></g></g></svg>