<svg xmlns="http://www.w3.org/2000/svg" xmlns:xlink="http://www.w3.org/1999/xlink" width="960" zoomAndPan="magnify" viewBox="0 0 720 719.999996" height="960" preserveAspectRatio="xMidYMid meet" version="1.0"><defs><clipPath id="9ce7a91c23"><path d="M 121 64.308594 L 175 64.308594 L 175 153 L 121 153 Z M 121 64.308594 " clip-rule="nonzero"/></clipPath><clipPath id="36da3c351d"><path d="M 545 64.308594 L 599 64.308594 L 599 153 L 545 153 Z M 545 64.308594 " clip-rule="nonzero"/></clipPath><clipPath id="42e19ef288"><path d="M 580 404 L 695.988281 404 L 695.988281 545 L 580 545 Z M 580 404 " clip-rule="nonzero"/></clipPath></defs><g clip-path="url(#9ce7a91c23)"><path fill="#4c1bc9" d="M 145.707031 125.054688 C 162.882812 112.210938 173.953125 84.628906 174.542969 64.308594 C 153.585938 69.289062 131.113281 99.4375 130.15625 121.398438 C 129.765625 130.09375 125.804688 144.769531 121.203125 152.589844 C 126.253906 144.027344 137.761719 131.003906 145.707031 125.054688 Z M 145.707031 125.054688 " fill-opacity="1" fill-rule="nonzero"/></g><path fill="#4c1bc9" d="M 88.652344 222.988281 C 93.785156 213.949219 98.292969 204.738281 102.691406 195.464844 C 105.222656 190.105469 109.527344 187.777344 115.109375 186.121094 C 124.878906 183.222656 134.816406 180.242188 143.851562 175.664062 C 158.175781 168.414062 166.382812 155.097656 174.78125 141.246094 C 142.347656 139.53125 121.699219 156.230469 105.730469 181.730469 C 113.585938 154.859375 124.597656 128.625 107.894531 100.914062 C 90.070312 122.761719 83.117188 148.308594 95.289062 172.839844 C 99.320312 180.976562 99.914062 188.570312 96.707031 197.0625 C 93.515625 205.515625 91.300781 214.328125 88.652344 222.988281 Z M 88.652344 222.988281 " fill-opacity="1" fill-rule="nonzero"/><path fill="#4c1bc9" d="M 57.855469 337.546875 C 64.65625 344.738281 69.089844 352.582031 70.203125 362.644531 C 71.324219 372.816406 73.574219 382.859375 75.191406 392.144531 C 75.191406 381.59375 74.660156 370.34375 75.429688 359.191406 C 75.785156 354.09375 77.78125 348.546875 80.679688 344.335938 C 84.644531 338.542969 89.917969 333.5625 95.039062 328.664062 C 112.757812 311.777344 119.285156 290.25 121.449219 266.675781 C 110.972656 268.308594 98.457031 276.613281 91.136719 286.570312 C 79.722656 302.089844 75.726562 319.984375 74.269531 338.71875 C 74.105469 340.871094 74.199219 340.375 73.832031 342.503906 C 73.371094 346.183594 72.636719 349.824219 71.988281 349.859375 C 71.3125 348.109375 69.894531 341.097656 69.691406 339.285156 C 68.464844 328.511719 67.199219 318.375 65.980469 307.601562 C 63.378906 284.429688 51.820312 266.324219 33.867188 250.921875 C 27.527344 275.3125 28.734375 297.984375 42.726562 318.824219 C 47.195312 325.460938 52.355469 331.742188 57.855469 337.546875 Z M 57.855469 337.546875 " fill-opacity="1" fill-rule="nonzero"/><path fill="#4c1bc9" d="M 73.585938 279.414062 C 71.953125 289.789062 72 304.324219 72.460938 314.449219 C 75.441406 302.796875 75.972656 287.480469 78.433594 275.796875 C 80.078125 268.003906 84.476562 262.335938 91.75 258.789062 C 96.613281 256.410156 101.238281 253.5625 105.945312 250.875 C 125.4375 239.699219 138.625 223.425781 145.683594 201.308594 C 108.652344 203.566406 92.699219 228.460938 79.355469 258.8125 C 78.800781 256.042969 79.144531 253.597656 79.390625 251.136719 C 80.265625 242.585938 81.296875 234.058594 82.289062 225.519531 C 84.972656 202.382812 80.410156 181.1875 64.726562 162.335938 C 63.648438 164.261719 62.5625 165.953125 61.710938 167.765625 C 48.488281 195.664062 49.101562 222.890625 66.699219 248.734375 C 73.21875 258.304688 75.382812 268.050781 73.585938 279.414062 Z M 73.585938 279.414062 " fill-opacity="1" fill-rule="nonzero"/><path fill="#4c1bc9" d="M 62.476562 416.390625 C 72.378906 422.707031 78.28125 430.925781 81.152344 442.234375 C 83.78125 452.546875 89.632812 466.078125 94.105469 475.316406 C 92.222656 463.273438 86.605469 448.785156 84.230469 436.921875 C 82.644531 429.011719 84.488281 421.972656 89.847656 415.761719 C 93.429688 411.613281 96.601562 407.105469 99.902344 402.71875 C 113.585938 384.515625 119.378906 364.089844 117.132812 340.660156 C 83.53125 357.558594 78.609375 387.117188 78.304688 420.71875 C 76.671875 418.363281 76.019531 415.953125 75.277344 413.550781 C 72.671875 405.238281 70.226562 396.875 67.742188 388.523438 C 61 365.898438 48.273438 347.980469 26.144531 336.671875 C 25.90625 338.894531 25.578125 340.90625 25.503906 342.941406 C 24.3125 374.226562 35.761719 399.335938 62.476562 416.390625 Z M 62.476562 416.390625 " fill-opacity="1" fill-rule="nonzero"/><path fill="#4c1bc9" d="M 114.839844 516.320312 C 121.011719 525.464844 131.46875 536.628906 139.0625 544.078125 C 133.003906 532.984375 122.445312 520.816406 115.972656 510.0625 C 111.65625 502.894531 110.996094 495.386719 114.046875 487.4375 C 116.09375 482.128906 117.605469 476.617188 119.296875 471.1875 C 126.289062 448.621094 124.773438 426.65625 114.378906 404.574219 C 87.503906 432.84375 93.050781 463.417969 104.523438 496.320312 C 102.113281 494.59375 100.621094 492.464844 99.050781 490.382812 C 93.597656 483.179688 88.273438 475.871094 82.929688 468.597656 C 68.414062 448.878906 49.726562 435.835938 24.15625 432.558594 C 24.703125 434.816406 25.089844 436.898438 25.730469 438.898438 C 35.546875 469.839844 55.523438 490.347656 87.5625 497.632812 C 99.425781 500.328125 108.085938 506.277344 114.839844 516.320312 Z M 114.839844 516.320312 " fill-opacity="1" fill-rule="nonzero"/><path fill="#4c1bc9" d="M 140.789062 570.394531 C 153.761719 569.542969 164.441406 572.996094 174.425781 581.207031 C 183.53125 588.691406 197.644531 596.925781 207.695312 602.246094 C 198.105469 592.726562 183.59375 583.488281 173.679688 574.453125 C 167.070312 568.433594 164.101562 560.933594 164.796875 551.875 C 165.269531 545.816406 165.140625 539.714844 165.210938 533.625 C 165.484375 508.382812 157.242188 486.351562 139.855469 466.917969 C 120.953125 504.054688 135.960938 533.683594 157.75 563.878906 C 154.746094 562.851562 152.582031 561.125 150.332031 559.46875 C 142.550781 553.753906 134.875 547.898438 127.175781 542.082031 C 106.300781 526.316406 83.175781 518.664062 55.996094 523.097656 C 57.25 525.238281 58.28125 527.25 59.535156 529.105469 C 79.046875 557.8125 105.753906 572.714844 140.789062 570.394531 Z M 140.789062 570.394531 " fill-opacity="1" fill-rule="nonzero"/><path fill="#4c1bc9" d="M 290.289062 641.078125 C 283.746094 640.058594 277.207031 638.355469 270.726562 636.238281 C 267.625 635.222656 264.539062 634.121094 261.464844 632.953125 C 258.355469 631.390625 255.371094 629.816406 252.628906 628.207031 C 244.230469 623.277344 239.382812 615.96875 238.09375 606.164062 C 237.230469 599.609375 235.726562 593.128906 234.425781 586.636719 C 229.03125 559.691406 215.289062 538.070312 192.390625 521.289062 C 180.625 565.109375 203.285156 593.28125 233.292969 620.53125 C 229.859375 620.105469 227.164062 618.757812 224.398438 617.503906 C 214.828125 613.164062 205.332031 608.65625 195.808594 604.199219 C 170.027344 592.097656 143.675781 589.152344 115.726562 600 C 117.535156 602 119.085938 603.914062 120.847656 605.605469 C 148.0625 631.78125 179.867188 641.644531 216.671875 631.285156 C 230.308594 627.453125 242.445312 628.730469 254.933594 635.234375 C 255.265625 635.410156 255.609375 635.578125 255.953125 635.753906 C 259.890625 638.132812 263.902344 640.4375 268.027344 642.589844 C 274.308594 645.878906 280.875 648.824219 287.792969 651.128906 C 294.699219 653.449219 302.007812 655.070312 309.578125 655.683594 L 309.613281 641.894531 C 303.34375 642.425781 296.828125 642.117188 290.289062 641.078125 Z M 290.289062 641.078125 " fill-opacity="1" fill-rule="nonzero"/><g clip-path="url(#36da3c351d)"><path fill="#4c1bc9" d="M 574.324219 125.054688 C 557.152344 112.210938 546.082031 84.628906 545.488281 64.308594 C 566.449219 69.289062 588.921875 99.4375 589.878906 121.398438 C 590.269531 130.09375 594.230469 144.769531 598.832031 152.589844 C 593.792969 144.027344 582.273438 131.003906 574.324219 125.054688 Z M 574.324219 125.054688 " fill-opacity="1" fill-rule="nonzero"/></g><path fill="#4c1bc9" d="M 631.382812 222.988281 C 626.246094 213.949219 621.742188 204.738281 617.34375 195.464844 C 614.8125 190.105469 610.503906 187.777344 604.921875 186.121094 C 595.152344 183.222656 585.21875 180.242188 576.183594 175.664062 C 561.859375 168.414062 553.652344 155.097656 545.253906 141.246094 C 577.683594 139.53125 598.335938 156.242188 614.300781 181.746094 C 606.449219 154.871094 595.4375 128.640625 612.136719 100.925781 C 629.960938 122.761719 636.917969 148.320312 624.746094 172.851562 C 620.710938 180.988281 620.121094 188.582031 623.328125 197.074219 C 626.519531 205.515625 628.730469 214.328125 631.382812 222.988281 Z M 631.382812 222.988281 " fill-opacity="1" fill-rule="nonzero"/><path fill="#4c1bc9" d="M 662.179688 337.546875 C 655.378906 344.738281 650.945312 352.582031 649.832031 362.644531 C 648.707031 372.816406 646.460938 382.859375 644.839844 392.144531 C 644.839844 381.59375 645.371094 370.34375 644.605469 359.191406 C 644.25 354.09375 642.25 348.546875 639.351562 344.335938 C 635.390625 338.542969 630.117188 333.5625 624.996094 328.664062 C 607.277344 311.777344 600.746094 290.25 598.582031 266.675781 C 609.0625 268.308594 621.574219 276.613281 628.898438 286.570312 C 640.3125 302.089844 644.308594 319.984375 645.761719 338.71875 C 645.929688 340.871094 645.835938 340.375 646.199219 342.503906 C 646.664062 346.183594 647.394531 349.824219 648.046875 349.859375 C 648.71875 348.109375 650.140625 341.097656 650.339844 339.285156 C 651.570312 328.511719 652.835938 318.375 654.054688 307.601562 C 656.65625 284.429688 668.210938 266.324219 686.167969 250.921875 C 692.503906 275.3125 691.300781 297.984375 677.308594 318.824219 C 672.835938 325.460938 667.679688 331.742188 662.179688 337.546875 Z M 662.179688 337.546875 " fill-opacity="1" fill-rule="nonzero"/><path fill="#4c1bc9" d="M 646.449219 279.414062 C 648.082031 289.789062 648.035156 304.324219 647.574219 314.449219 C 644.59375 302.796875 644.058594 287.480469 641.601562 275.796875 C 639.957031 268.003906 635.554688 262.335938 628.28125 258.789062 C 623.421875 256.410156 618.796875 253.5625 614.089844 250.875 C 594.597656 239.699219 581.410156 223.425781 574.347656 201.308594 C 611.378906 203.566406 627.335938 228.460938 640.675781 258.8125 C 641.234375 256.042969 640.890625 253.597656 640.640625 251.136719 C 639.765625 242.585938 638.738281 234.058594 637.746094 225.519531 C 635.058594 202.382812 639.625 181.1875 655.308594 162.335938 C 656.382812 164.261719 657.472656 165.953125 658.324219 167.765625 C 671.546875 195.664062 670.933594 222.890625 653.332031 248.734375 C 646.816406 258.304688 644.652344 268.050781 646.449219 279.414062 Z M 646.449219 279.414062 " fill-opacity="1" fill-rule="nonzero"/><path fill="#4c1bc9" d="M 657.566406 416.390625 C 647.667969 422.707031 641.765625 430.925781 638.890625 442.234375 C 636.265625 452.546875 630.410156 466.078125 625.941406 475.316406 C 627.820312 463.273438 633.4375 448.785156 635.816406 436.921875 C 637.402344 429.011719 635.554688 421.972656 630.199219 415.761719 C 626.613281 411.613281 623.445312 407.105469 620.144531 402.71875 C 606.460938 384.515625 600.664062 364.089844 602.914062 340.660156 C 636.515625 357.558594 641.433594 387.117188 641.742188 420.71875 C 643.375 418.363281 644.023438 415.953125 644.769531 413.550781 C 647.371094 405.238281 649.820312 396.875 652.304688 388.523438 C 659.046875 365.898438 671.773438 347.980469 693.902344 336.671875 C 694.136719 338.894531 694.46875 340.90625 694.539062 342.941406 C 695.722656 374.226562 684.273438 399.335938 657.566406 416.390625 Z M 657.566406 416.390625 " fill-opacity="1" fill-rule="nonzero"/><g clip-path="url(#42e19ef288)"><path fill="#4c1bc9" d="M 605.195312 516.320312 C 599.019531 525.464844 588.566406 536.628906 580.972656 544.078125 C 587.027344 532.984375 597.589844 520.816406 604.058594 510.0625 C 608.375 502.894531 609.039062 495.386719 605.988281 487.4375 C 603.941406 482.128906 602.425781 476.617188 600.734375 471.1875 C 593.746094 448.621094 595.261719 426.65625 605.65625 404.574219 C 632.527344 432.84375 626.980469 463.417969 615.507812 496.320312 C 617.921875 494.59375 619.410156 492.464844 620.984375 490.382812 C 626.4375 483.179688 631.757812 475.871094 637.105469 468.597656 C 651.617188 448.878906 670.304688 435.835938 695.875 432.558594 C 695.332031 434.816406 694.941406 436.898438 694.304688 438.898438 C 684.488281 469.839844 664.511719 490.347656 632.46875 497.632812 C 620.605469 500.328125 611.960938 506.277344 605.195312 516.320312 Z M 605.195312 516.320312 " fill-opacity="1" fill-rule="nonzero"/></g><path fill="#4c1bc9" d="M 579.246094 570.394531 C 566.269531 569.542969 555.589844 572.996094 545.609375 581.207031 C 536.5 588.691406 522.390625 596.925781 512.335938 602.246094 C 521.929688 592.726562 536.441406 583.488281 546.351562 574.453125 C 552.964844 568.433594 555.933594 560.933594 555.234375 551.875 C 554.761719 545.816406 554.894531 539.714844 554.820312 533.625 C 554.550781 508.382812 562.792969 486.351562 580.179688 466.917969 C 599.082031 504.054688 584.070312 533.683594 562.285156 563.878906 C 565.289062 562.851562 567.453125 561.125 569.699219 559.46875 C 577.484375 553.753906 585.160156 547.898438 592.859375 542.082031 C 613.734375 526.316406 636.855469 518.664062 664.035156 523.097656 C 662.78125 525.238281 661.753906 527.25 660.5 529.105469 C 640.996094 557.8125 614.277344 572.714844 579.246094 570.394531 Z M 579.246094 570.394531 " fill-opacity="1" fill-rule="nonzero"/><path fill="#4c1bc9" d="M 429.746094 641.078125 C 436.285156 640.058594 442.828125 638.355469 449.308594 636.238281 C 452.40625 635.222656 455.496094 634.121094 458.570312 632.953125 C 461.679688 631.390625 464.660156 629.816406 467.40625 628.207031 C 475.800781 623.277344 480.652344 615.96875 481.941406 606.164062 C 482.804688 599.609375 484.304688 593.128906 485.605469 586.636719 C 491 559.691406 504.742188 538.070312 527.640625 521.289062 C 539.410156 565.109375 516.75 593.28125 486.742188 620.53125 C 490.171875 620.105469 492.871094 618.757812 495.636719 617.503906 C 505.207031 613.164062 514.703125 608.65625 524.222656 604.199219 C 550.007812 592.097656 576.359375 589.152344 604.308594 600 C 602.5 602 600.949219 603.914062 599.1875 605.605469 C 571.972656 631.78125 540.167969 641.644531 503.359375 631.285156 C 489.722656 627.453125 477.589844 628.730469 465.097656 635.234375 C 464.765625 635.410156 464.425781 635.578125 464.082031 635.753906 C 460.144531 638.132812 456.132812 640.4375 452.003906 642.589844 C 445.726562 645.878906 439.160156 648.824219 432.242188 651.128906 C 425.335938 653.449219 418.023438 655.070312 410.457031 655.683594 L 410.417969 641.894531 C 416.6875 642.425781 423.21875 642.117188 429.746094 641.078125 Z M 429.746094 641.078125 " fill-opacity="1" fill-rule="nonzero"/><path stroke-linecap="round" transform="matrix(0.271, 0, 0, 0.271, 156.828715, 156.828733)" fill-opacity="1" fill="#4c1bc9" fill-rule="evenodd" stroke-linejoin="round" d="M 145.350684 88.832514 L 704.809287 396.792039 L 704.809287 1281.680185 L 137.567012 962.030739 Z M 145.350684 88.832514 " stroke="#4c1bc9" stroke-width="8.33" stroke-opacity="1" stroke-miterlimit="1.5"/><path stroke-linecap="round" transform="matrix(0.271, 0, 0, 0.271, 156.828715, 156.828733)" fill-opacity="1" fill="#4c1bc9" fill-rule="evenodd" stroke-linejoin="round" d="M 1348.663069 88.832514 L 789.204466 396.792039 L 789.204466 1281.680185 L 1356.461155 962.030739 Z M 1348.663069 88.832514 " stroke="#4c1bc9" stroke-width="8.33" stroke-opacity="1" stroke-miterlimit="1.5"/><path stroke-linecap="round" transform="matrix(0.271, 0, 0, 0.271, 156.828715, 156.828733)" fill="none" stroke-linejoin="round" d="M 98.547755 1057.351887 L 756.239176 1411.163004 L 1401.447894 1049.020476 " stroke="#4c1bc9" stroke-width="50" stroke-opacity="1" stroke-miterlimit="1.5"/></svg>