<?xml version="1.0" encoding="UTF-8" standalone="no"?><!DOCTYPE svg PUBLIC "-//W3C//DTD SVG 1.1//EN" "http://www.w3.org/Graphics/SVG/1.1/DTD/svg11.dtd"><svg width="100%" height="100%" viewBox="0 0 1500 1500" version="1.1" xmlns="http://www.w3.org/2000/svg" xmlns:xlink="http://www.w3.org/1999/xlink" xml:space="preserve" xmlns:serif="http://www.serif.com/" style="fill-rule:evenodd;clip-rule:evenodd;stroke-linecap:round;stroke-linejoin:round;stroke-miterlimit:1.5;"><g id="Square"><g id="Logo"><path d="M307.481,266.115l409.441,225.383l0,647.619l-415.147,-233.942l5.706,-639.06Z" style="fill:#4c1bc9;stroke:#4c1bc9;stroke-width:8.33px;"/><path d="M1188.138,266.115l-409.441,225.383l0,647.619l415.147,-233.942l-5.706,-639.06Z" style="fill:#4c1bc9;stroke:#4c1bc9;stroke-width:8.33px;"/><path d="M273.228,974.935l481.342,258.95l472.202,-265.043" style="fill:none;stroke:#4c1bc9;stroke-width:33.33px;"/></g><path d="M1398.335,425.832l0,648.335c0,178.913 -145.255,324.168 -324.168,324.168l-648.335,0c-178.913,0 -324.168,-145.255 -324.168,-324.168l0,-648.335c0,-178.913 145.255,-324.168 324.168,-324.168l648.335,0c178.913,0 324.168,145.255 324.168,324.168Z" style="fill:none;stroke:#4c1bc9;stroke-width:50px;"/></g></svg>