<?xml version="1.0" encoding="UTF-8" standalone="no"?><!DOCTYPE svg PUBLIC "-//W3C//DTD SVG 1.1//EN" "http://www.w3.org/Graphics/SVG/1.1/DTD/svg11.dtd"><svg width="100%" height="100%" viewBox="0 0 5000 2625" version="1.1" xmlns="http://www.w3.org/2000/svg" xmlns:xlink="http://www.w3.org/1999/xlink" xml:space="preserve" xmlns:serif="http://www.serif.com/" style="fill-rule:evenodd;clip-rule:evenodd;"><rect x="0" y="0" width="5000" height="2625" style="fill:url(#_Linear1);"/><rect x="0" y="0" width="5000" height="2625" style="fill:none;"/><ellipse cx="2500" cy="1145.833" rx="1958.333" ry="916.667" style="fill:url(#_Radial2);"/><rect x="0" y="0" width="5000" height="16.667" style="fill:url(#_Linear3);"/><rect x="0" y="2608.333" width="5000" height="16.667" style="fill:url(#_Linear4);"/><g opacity="0.24"><path d="M316.667,550l233.333,0l0,-233.333" style="fill:none;fill-rule:nonzero;stroke:#4c1bc9;stroke-width:8.33px;"/><path d="M4683.333,550l-233.333,0l0,-233.333" style="fill:none;fill-rule:nonzero;stroke:#7c3aed;stroke-width:8.33px;"/><path d="M316.667,2075l233.333,0l0,233.333" style="fill:none;fill-rule:nonzero;stroke:#7c3aed;stroke-width:8.33px;"/><path d="M4683.333,2075l-233.333,0l0,233.333" style="fill:none;fill-rule:nonzero;stroke:#4c1bc9;stroke-width:8.33px;"/></g><text x="1065.05px" y="1600px" style="font-family:'Geist-Regular', 'Geist';font-size:100px;fill:#fff;">F<tspan x="1121.05px 1154.95px 1210.05px " y="1600px 1600px 1600px ">ree</tspan>, o<tspan x="1367.55px 1426.05px 1481.15px " y="1600px 1600px 1600px ">pen</tspan>-s<tspan x="1632.55px 1688.85px 1746.35px 1780.25px 1833.85px " y="1600px 1600px 1600px 1600px 1600px ">ource</tspan> d<tspan x="1973.45px 2027.05px 2078.05px 2133.65px 2159.75px 2216.05px 2274.55px 2329.65px " y="1600px 1600px 1600px 1600px 1600px 1600px 1600px 1600px ">eveloper</tspan> e<tspan x="2447.65px 2505.15px 2561.65px 2616.65px 2668.75px 2707.35px 2730.75px 2787.05px " y="1600px 1600px 1600px 1600px 1600px 1600px 1600px 1600px ">ducation</tspan> b<tspan x="2928.65px 2984.65px 3008.05px 3031.75px " y="1600px 1600px 1600px 1600px ">uilt</tspan> e<tspan x="3151.05px 3205.15px 3243.75px 3269.15px 3303.05px 3358.65px 3382.95px " y="1600px 1600px 1600px 1600px 1600px 1600px 1600px ">ntirely</tspan> o<tspan x="3517.95px " y="1600px ">n</tspan> Gi<tspan x="3691.45px 3730.05px 3799.35px 3855.35px " y="1600px 1600px 1600px 1600px ">tHub</tspan>.</text><rect x="1708.333" y="1750" width="1583.333" height="8.333" style="fill:url(#_Linear5);"/><g><g><path d="M1700,1875l0,200c0,18.397 -14.936,33.333 -33.333,33.333l-616.667,0c-18.397,0 -33.333,-14.936 -33.333,-33.333l0,-200c0,-18.397 14.936,-33.333 33.333,-33.333l616.667,0c18.397,0 33.333,14.936 33.333,33.333Z" style="fill:#15111f;stroke:#342753;stroke-width:4.17px;"/><text x="1275.863px" y="1966.667px" style="font-family:'Consolas-Bold', 'Consolas', monospace;font-weight:700;font-size:75px;fill:#f7f7fb;">OPEN</text><text x="1268.99px" y="2020.833px" style="font-family:'Consolas', monospace;font-size:54.167px;fill:#8f85ac;">SOURCE</text></g><g><path d="M2458.333,1875l0,200c0,18.397 -14.936,33.333 -33.333,33.333l-616.667,0c-18.397,0 -33.333,-14.936 -33.333,-33.333l0,-200c0,-18.397 14.936,-33.333 33.333,-33.333l616.667,0c18.397,0 33.333,14.936 33.333,33.333Z" style="fill:#15111f;stroke:#342753;stroke-width:4.17px;"/><text x="2034.196px" y="1966.667px" style="font-family:'Consolas-Bold', 'Consolas', monospace;font-weight:700;font-size:75px;fill:#f7f7fb;">SELF</text><text x="2042.214px" y="2020.833px" style="font-family:'Consolas', monospace;font-size:54.167px;fill:#8f85ac;">PACED</text></g><g><path d="M3216.667,1875l0,200c0,18.397 -14.936,33.333 -33.333,33.333l-616.667,0c-18.397,0 -33.333,-14.936 -33.333,-33.333l0,-200c0,-18.397 14.936,-33.333 33.333,-33.333l616.667,0c18.397,0 33.333,14.936 33.333,33.333Z" style="fill:#15111f;stroke:#342753;stroke-width:4.17px;"/><text x="2813.147px" y="1966.667px" style="font-family:'Consolas-Bold', 'Consolas', monospace;font-weight:700;font-size:75px;fill:#f7f7fb;">GIT</text><text x="2785.657px" y="2020.833px" style="font-family:'Consolas', monospace;font-size:54.167px;fill:#8f85ac;">NATIVE</text></g><g><path d="M3975,1875l0,200c0,18.397 -14.936,33.333 -33.333,33.333l-616.667,0c-18.397,0 -33.333,-14.936 -33.333,-33.333l0,-200c0,-18.397 14.936,-33.333 33.333,-33.333l616.667,0c18.397,0 33.333,14.936 33.333,33.333Z" style="fill:#15111f;stroke:#342753;stroke-width:4.17px;"/><text x="3550.863px" y="1966.667px" style="font-family:'Consolas-Bold', 'Consolas', monospace;font-weight:700;font-size:75px;fill:#7c3aed;">FREE</text><text x="3529.1px" y="2020.833px" style="font-family:'Consolas', monospace;font-size:54.167px;fill:#8f85ac;">FOREVER</text></g></g><g id="Full-Logo" serif:id="Full Logo"><g id="Logo"><path d="M1087.35,778.226l227.923,125.464l0,360.509l-231.099,-130.228l3.176,-355.745Z" style="fill:#4c1bc9;stroke:#4c1bc9;stroke-width:8.33px;stroke-linecap:round;stroke-linejoin:round;stroke-miterlimit:1.5;"/><path d="M1577.584,778.226l-227.923,125.464l0,360.509l231.099,-130.228l-3.176,-355.745Z" style="fill:#4c1bc9;stroke:#4c1bc9;stroke-width:8.33px;stroke-linecap:round;stroke-linejoin:round;stroke-miterlimit:1.5;"/><path d="M1068.282,1168.351l267.948,144.149l262.86,-147.541" style="fill:none;stroke:#4c1bc9;stroke-width:12.5px;stroke-linecap:round;stroke-linejoin:round;stroke-miterlimit:1.5;"/></g><g transform="matrix(2.105072,0,0,2.105072,-741.924733,-376.988933)"><text x="1158.015px" y="719.298px" style="font-family:'Geist-ExtraBold', 'Geist';font-weight:800;font-size:166.667px;fill:#4c1bc9;">Op<tspan x="1395.515px 1497.182px " y="719.298px 719.298px ">en</tspan></text><g transform="matrix(166.666667,0,0,166.666667,2227.51546,719.298391)"></g><text x="1600.682px" y="719.298px" style="font-family:'Geist-Regular', 'Geist';font-size:166.667px;fill:#fff;">C<tspan x="1716.515px 1810.349px 1906.182px 1962.682px 2048.349px 2140.182px " y="719.298px 719.298px 719.298px 719.298px 719.298px 719.298px ">ourses</tspan></text></g></g><defs><linearGradient id="_Linear1" x1="0" y1="0" x2="1" y2="0" gradientUnits="userSpaceOnUse" gradientTransform="matrix(5000,2625,-2625,5000,0,0)"><stop offset="0" style="stop-color:#0d0f12;stop-opacity:1"/><stop offset="1" style="stop-color:#15111f;stop-opacity:1"/></linearGradient><radialGradient id="_Radial2" cx="0" cy="0" r="1" gradientUnits="userSpaceOnUse" gradientTransform="matrix(1880,0,0,1880,2500,999.166667)"><stop offset="0" style="stop-color:#4c1bc9;stop-opacity:0.24"/><stop offset="1" style="stop-color:#4c1bc9;stop-opacity:0"/></radialGradient><linearGradient id="_Linear3" x1="0" y1="0" x2="1" y2="0" gradientUnits="userSpaceOnUse" gradientTransform="matrix(3000,0,0,3000,1000,0)"><stop offset="0" style="stop-color:#4c1bc9;stop-opacity:0"/><stop offset="0.25" style="stop-color:#4c1bc9;stop-opacity:0.95"/><stop offset="0.72" style="stop-color:#7c3aed;stop-opacity:0.85"/><stop offset="1" style="stop-color:#7c3aed;stop-opacity:0"/></linearGradient><linearGradient id="_Linear4" x1="0" y1="0" x2="1" y2="0" gradientUnits="userSpaceOnUse" gradientTransform="matrix(3000,0,0,3000,1000,0)"><stop offset="0" style="stop-color:#4c1bc9;stop-opacity:0"/><stop offset="0.25" style="stop-color:#4c1bc9;stop-opacity:0.47"/><stop offset="0.72" style="stop-color:#7c3aed;stop-opacity:0.42"/><stop offset="1" style="stop-color:#7c3aed;stop-opacity:0"/></linearGradient><linearGradient id="_Linear5" x1="0" y1="0" x2="1" y2="0" gradientUnits="userSpaceOnUse" gradientTransform="matrix(3000,0,0,3000,1000,0)"><stop offset="0" style="stop-color:#4c1bc9;stop-opacity:0"/><stop offset="0.25" style="stop-color:#4c1bc9;stop-opacity:0.68"/><stop offset="0.72" style="stop-color:#7c3aed;stop-opacity:0.61"/><stop offset="1" style="stop-color:#7c3aed;stop-opacity:0"/></linearGradient></defs></svg>