<?xml version="1.0" encoding="UTF-8" standalone="no"?><!DOCTYPE svg PUBLIC "-//W3C//DTD SVG 1.1//EN" "http://www.w3.org/Graphics/SVG/1.1/DTD/svg11.dtd"><svg width="100%" height="100%" viewBox="0 0 5000 1417" version="1.1" xmlns="http://www.w3.org/2000/svg" xmlns:xlink="http://www.w3.org/1999/xlink" xml:space="preserve" xmlns:serif="http://www.serif.com/" style="fill-rule:evenodd;clip-rule:evenodd;"><rect x="0" y="0" width="5000" height="1416.667" style="fill:url(#_Linear1);"/><rect x="0" y="0" width="5000" height="1416.667" style="fill:none;"/><ellipse cx="2500" cy="533.333" rx="1958.333" ry="791.667" style="fill:url(#_Radial2);"/><rect x="0" y="0" width="5000" height="12.5" style="fill:url(#_Linear3);"/><rect x="0" y="1404.167" width="5000" height="12.5" style="fill:url(#_Linear4);"/><g opacity="0.2"><path d="M183.333,258.333l91.667,0m-91.667,0l0,291.667" style="fill:none;fill-rule:nonzero;stroke:#4c1bc9;stroke-width:8.33px;"/><path d="M4816.667,258.333l-91.667,0m91.667,0l0,291.667" style="fill:none;fill-rule:nonzero;stroke:#7c3aed;stroke-width:8.33px;"/><path d="M183.333,1158.333l91.667,0m-91.667,0l0,-291.667" style="fill:none;fill-rule:nonzero;stroke:#7c3aed;stroke-width:8.33px;"/><path d="M4816.667,1158.333l-91.667,0m91.667,0l0,-291.667" style="fill:none;fill-rule:nonzero;stroke:#4c1bc9;stroke-width:8.33px;"/></g><text x="1234.356px" y="825px" style="font-family:'Inter28pt-Regular', 'Inter 28pt';font-size:70.833px;fill:#c9c5d8;">F<tspan x="1272.885px 1295.781px " y="825px 825px ">re</tspan>e, open-sour<tspan x="1733.89px " y="825px ">c</tspan>e de<tspan x="1906.684px 1942.343px " y="825px 825px ">ve</tspan>loper educ<tspan x="2314.356px " y="825px ">a</tspan>tion. V<tspan x="2545.36px " y="825px ">e</tspan>rsion-contr<tspan x="2929.375px " y="825px ">o</tspan>lled and communi<tspan x="3524.818px 3549.029px 3584.895px " y="825px 825px 825px ">ty-</tspan>buil<tspan x="3726.734px " y="825px ">t</tspan>.</text><rect x="1991.667" y="916.667" width="1016.667" height="4.167" style="fill:url(#_Linear5);"/><g><g><path d="M1758.333,1033.333l0,133.333c0,13.798 -11.202,25 -25,25l-516.667,0c-13.798,0 -25,-11.202 -25,-25l0,-133.333c0,-13.798 11.202,-25 25,-25l516.667,0c13.798,0 25,11.202 25,25Z" style="fill:#15111f;stroke:#342753;stroke-width:4.17px;"/><text x="1397.111px" y="1100px" style="font-family:'Consolas-Bold', 'Consolas', monospace;font-weight:700;font-size:70.833px;fill:#f7f7fb;">OPEN</text><text x="1393.396px" y="1146.789px" style="font-family:'Consolas', monospace;font-size:50px;fill:#8f85ac;">SOURCE</text></g><g><path d="M2441.667,1033.333l0,133.333c0,13.798 -11.202,25 -25,25l-516.667,0c-13.798,0 -25,-11.202 -25,-25l0,-133.333c0,-13.798 11.202,-25 25,-25l516.667,0c13.798,0 25,11.202 25,25Z" style="fill:#15111f;stroke:#342753;stroke-width:4.17px;"/><text x="2080.444px" y="1100px" style="font-family:'Consolas-Bold', 'Consolas', monospace;font-weight:700;font-size:70.833px;fill:#f7f7fb;">SELF</text><text x="2089.608px" y="1145.833px" style="font-family:'Consolas', monospace;font-size:50px;fill:#8f85ac;">PACED</text></g><g><path d="M3125,1033.333l0,133.333c0,13.798 -11.202,25 -25,25l-516.667,0c-13.798,0 -25,-11.202 -25,-25l0,-133.333c0,-13.798 11.202,-25 25,-25l516.667,0c13.798,0 25,11.202 25,25Z" style="fill:#15111f;stroke:#342753;stroke-width:4.17px;"/><text x="2783.25px" y="1100px" style="font-family:'Consolas-Bold', 'Consolas', monospace;font-weight:700;font-size:70.833px;fill:#f7f7fb;">GIT</text><text x="2759.196px" y="1145.833px" style="font-family:'Consolas', monospace;font-size:50px;fill:#8f85ac;">NATIVE</text></g><g><path d="M3808.333,1033.333l0,133.333c0,13.798 -11.202,25 -25,25l-516.667,0c-13.798,0 -25,-11.202 -25,-25l0,-133.333c0,-13.798 11.202,-25 25,-25l516.667,0c13.798,0 25,11.202 25,25Z" style="fill:#15111f;stroke:#342753;stroke-width:4.17px;"/><text x="3447.111px" y="1100px" style="font-family:'Consolas-Bold', 'Consolas', monospace;font-weight:700;font-size:70.833px;fill:#7c3aed;">FREE</text><text x="3428.784px" y="1145.833px" style="font-family:'Consolas', monospace;font-size:50px;fill:#8f85ac;">FOREVER</text></g></g><text x="1570.426px" y="1350px" style="font-family:'Consolas', monospace;font-size:41.667px;fill:#625a7a;">E<tspan x="1593.959px 1617.493px 1641.026px 1664.56px 1688.093px 1711.627px 1735.16px 1758.694px 1782.227px 1805.761px 1829.294px 1852.828px 1876.361px 1899.895px 1923.429px 1946.962px 1970.496px 1994.029px 2017.563px 2041.096px 2064.63px 2088.163px 2111.697px 2135.23px 2158.764px 2182.297px 2205.831px 2229.364px 2252.898px 2276.431px 2299.965px 2323.499px 2347.032px 2370.566px 2394.099px 2417.633px 2441.166px 2464.7px 2488.233px 2511.767px 2535.3px 2558.834px 2582.367px 2605.901px 2629.434px 2652.968px 2676.501px 2700.035px 2723.569px 2747.102px 2770.636px 2794.169px 2817.703px 2841.236px 2864.77px 2888.303px 2911.837px 2935.37px 2958.904px 2982.437px 3005.971px 3029.504px 3053.038px 3076.571px 3100.105px 3123.639px 3147.172px 3170.706px 3194.239px 3217.773px 3241.306px 3264.84px 3288.373px 3311.907px 3335.44px 3358.974px 3382.507px 3406.041px " y="1350px 1350px 1350px 1350px 1350px 1350px 1350px 1350px 1350px 1350px 1350px 1350px 1350px 1350px 1350px 1350px 1350px 1350px 1350px 1350px 1350px 1350px 1350px 1350px 1350px 1350px 1350px 1350px 1350px 1350px 1350px 1350px 1350px 1350px 1350px 1350px 1350px 1350px 1350px 1350px 1350px 1350px 1350px 1350px 1350px 1350px 1350px 1350px 1350px 1350px 1350px 1350px 1350px 1350px 1350px 1350px 1350px 1350px 1350px 1350px 1350px 1350px 1350px 1350px 1350px 1350px 1350px 1350px 1350px 1350px 1350px 1350px 1350px 1350px 1350px 1350px 1350px 1350px ">VERY COURSE IS A REPO | EVERY UPDATE IS A COMMIT | EVERY LEARNER OWNS THE WORK</tspan></text><g id="Full-Logo---Horizontal" serif:id="Full Logo - Horizontal"><g id="Logo"><path d="M1553.237,297.689l152.755,84.086l0,241.615l-154.883,-87.279l2.129,-238.421Z" style="fill:#4c1bc9;stroke:#4c1bc9;stroke-width:8.33px;stroke-linecap:round;stroke-linejoin:round;stroke-miterlimit:1.5;"/><path d="M1881.794,297.689l-152.755,84.086l0,241.615l154.883,-87.279l-2.129,-238.421Z" style="fill:#4c1bc9;stroke:#4c1bc9;stroke-width:8.33px;stroke-linecap:round;stroke-linejoin:round;stroke-miterlimit:1.5;"/><path d="M1540.458,559.152l179.58,96.609l176.17,-98.882" style="fill:none;stroke:#4c1bc9;stroke-width:12.5px;stroke-linecap:round;stroke-linejoin:round;stroke-miterlimit:1.5;"/></g><g transform="matrix(1.410826,0,0,1.410826,327.250625,-476.540132)"><text x="1158.015px" y="719.298px" style="font-family:'Geist-ExtraBold', 'Geist';font-weight:800;font-size:166.667px;fill:#4c1bc9;">Op<tspan x="1395.515px 1497.182px " y="719.298px 719.298px ">en</tspan></text><g transform="matrix(166.666667,0,0,166.666667,2227.51546,719.298391)"></g><text x="1600.682px" y="719.298px" style="font-family:'Geist-Regular', 'Geist';font-size:166.667px;fill:#fff;">C<tspan x="1716.515px 1810.349px 1906.182px 1962.682px 2048.349px 2140.182px " y="719.298px 719.298px 719.298px 719.298px 719.298px 719.298px ">ourses</tspan></text></g></g><defs><linearGradient id="_Linear1" x1="0" y1="0" x2="1" y2="0" gradientUnits="userSpaceOnUse" gradientTransform="matrix(5000,1416.666667,-1416.666667,5000,0,0)"><stop offset="0" style="stop-color:#0d0f12;stop-opacity:1"/><stop offset="1" style="stop-color:#15111f;stop-opacity:1"/></linearGradient><radialGradient id="_Radial2" cx="0" cy="0" r="1" gradientUnits="userSpaceOnUse" gradientTransform="matrix(2036.666667,0,0,2036.666667,2500,343.333333)"><stop offset="0" style="stop-color:#4c1bc9;stop-opacity:0.18"/><stop offset="1" style="stop-color:#4c1bc9;stop-opacity:0"/></radialGradient><linearGradient id="_Linear3" x1="0" y1="0" x2="1" y2="0" gradientUnits="userSpaceOnUse" gradientTransform="matrix(5000,0,0,5000,0,0)"><stop offset="0" style="stop-color:#4c1bc9;stop-opacity:0"/><stop offset="0.3" style="stop-color:#4c1bc9;stop-opacity:0.92"/><stop offset="0.7" style="stop-color:#7c3aed;stop-opacity:0.8"/><stop offset="1" style="stop-color:#7c3aed;stop-opacity:0"/></linearGradient><linearGradient id="_Linear4" x1="0" y1="0" x2="1" y2="0" gradientUnits="userSpaceOnUse" gradientTransform="matrix(5000,0,0,5000,0,0)"><stop offset="0" style="stop-color:#4c1bc9;stop-opacity:0"/><stop offset="0.3" style="stop-color:#4c1bc9;stop-opacity:0.42"/><stop offset="0.7" style="stop-color:#7c3aed;stop-opacity:0.37"/><stop offset="1" style="stop-color:#7c3aed;stop-opacity:0"/></linearGradient><linearGradient id="_Linear5" x1="0" y1="0" x2="1" y2="0" gradientUnits="userSpaceOnUse" gradientTransform="matrix(5000,0,0,5000,0,0)"><stop offset="0" style="stop-color:#4c1bc9;stop-opacity:0"/><stop offset="0.3" style="stop-color:#4c1bc9;stop-opacity:0.66"/><stop offset="0.7" style="stop-color:#7c3aed;stop-opacity:0.58"/><stop offset="1" style="stop-color:#7c3aed;stop-opacity:0"/></linearGradient></defs></svg>