<?xml version="1.0" encoding="UTF-8" standalone="no"?><!DOCTYPE svg PUBLIC "-//W3C//DTD SVG 1.1//EN" "http://www.w3.org/Graphics/SVG/1.1/DTD/svg11.dtd"><svg width="100%" height="100%" viewBox="0 0 5000 1417" version="1.1" xmlns="http://www.w3.org/2000/svg" xmlns:xlink="http://www.w3.org/1999/xlink" xml:space="preserve" xmlns:serif="http://www.serif.com/" style="fill-rule:evenodd;clip-rule:evenodd;"><rect x="0" y="0" width="5000" height="1416.667" style="fill:url(#_Linear1);"/><rect x="0" y="0" width="5000" height="1416.667" style="fill:none;"/><ellipse cx="2500" cy="533.333" rx="1958.333" ry="791.667" style="fill:url(#_Radial2);"/><rect x="0" y="0" width="5000" height="12.5" style="fill:url(#_Linear3);"/><rect x="0" y="1404.167" width="5000" height="12.5" style="fill:url(#_Linear4);"/><g opacity="0.2"><path d="M183.333,258.333l91.667,0m-91.667,0l0,291.667" style="fill:none;fill-rule:nonzero;stroke:#4c1bc9;stroke-width:8.33px;"/><path d="M4816.667,258.333l-91.667,0m91.667,0l0,291.667" style="fill:none;fill-rule:nonzero;stroke:#7c3aed;stroke-width:8.33px;"/><path d="M183.333,1158.333l91.667,0m-91.667,0l0,-291.667" style="fill:none;fill-rule:nonzero;stroke:#7c3aed;stroke-width:8.33px;"/><path d="M4816.667,1158.333l-91.667,0m91.667,0l0,-291.667" style="fill:none;fill-rule:nonzero;stroke:#4c1bc9;stroke-width:8.33px;"/></g><text x="1202.723px" y="825px" style="font-family:'Geist-Regular', 'Geist';font-size:70.833px;fill:#fff;">F<tspan x="1242.39px 1266.402px 1305.431px " y="825px 825px 825px ">ree</tspan>, o<tspan x="1416.994px 1458.431px 1497.46px " y="825px 825px 825px ">pen</tspan>-s<tspan x="1604.702px 1644.581px 1685.31px 1709.323px 1747.29px " y="825px 825px 825px 825px 825px ">ource</tspan> d<tspan x="1846.173px 1884.14px 1920.265px 1959.648px 1978.135px 2018.015px 2059.452px 2098.481px " y="825px 825px 825px 825px 825px 825px 825px 825px ">eveloper</tspan> e<tspan x="2182.065px 2222.794px 2262.815px 2301.773px 2338.677px 2366.019px 2382.594px 2422.473px " y="825px 825px 825px 825px 825px 825px 825px 825px ">ducation</tspan>. V<tspan x="2539.985px 2579.015px 2603.027px 2639.435px 2656.01px 2695.89px " y="825px 825px 825px 825px 825px 825px ">ersion</tspan>-c<tspan x="2804.69px 2844.569px 2882.89px 2911.01px 2935.023px 2975.256px 2993.46px 3011.948px 3050.977px " y="825px 825px 825px 825px 825px 825px 825px 825px 825px ">ontrolled</tspan> a<tspan x="3149.577px 3189.881px " y="825px 825px ">nd</tspan> c<tspan x="3287.702px 3327.581px 3388.285px 3449.344px 3490.073px 3530.519px 3544.969px 3572.027px 3609.356px 3639.035px 3680.473px 3720.14px 3736.715px 3753.502px 3783.04px " y="825px 825px 825px 825px 825px 825px 825px 825px 825px 825px 825px 825px 825px 825px 825px ">ommunity-built.</tspan></text><rect x="1991.667" y="916.667" width="1016.667" height="4.167" style="fill:url(#_Linear5);"/><g><g><path d="M1758.333,1033.333l0,133.333c0,13.798 -11.202,25 -25,25l-516.667,0c-13.798,0 -25,-11.202 -25,-25l0,-133.333c0,-13.798 11.202,-25 25,-25l516.667,0c13.798,0 25,11.202 25,25Z" style="fill:#15111f;stroke:#342753;stroke-width:4.17px;"/><text x="1397.111px" y="1100px" style="font-family:'Consolas-Bold', 'Consolas', monospace;font-weight:700;font-size:70.833px;fill:#f7f7fb;">OPEN</text><text x="1393.396px" y="1146.789px" style="font-family:'Consolas', monospace;font-size:50px;fill:#8f85ac;">SOURCE</text></g><g><path d="M2441.667,1033.333l0,133.333c0,13.798 -11.202,25 -25,25l-516.667,0c-13.798,0 -25,-11.202 -25,-25l0,-133.333c0,-13.798 11.202,-25 25,-25l516.667,0c13.798,0 25,11.202 25,25Z" style="fill:#15111f;stroke:#342753;stroke-width:4.17px;"/><text x="2080.444px" y="1100px" style="font-family:'Consolas-Bold', 'Consolas', monospace;font-weight:700;font-size:70.833px;fill:#f7f7fb;">SELF</text><text x="2089.608px" y="1145.833px" style="font-family:'Consolas', monospace;font-size:50px;fill:#8f85ac;">PACED</text></g><g><path d="M3125,1033.333l0,133.333c0,13.798 -11.202,25 -25,25l-516.667,0c-13.798,0 -25,-11.202 -25,-25l0,-133.333c0,-13.798 11.202,-25 25,-25l516.667,0c13.798,0 25,11.202 25,25Z" style="fill:#15111f;stroke:#342753;stroke-width:4.17px;"/><text x="2783.25px" y="1100px" style="font-family:'Consolas-Bold', 'Consolas', monospace;font-weight:700;font-size:70.833px;fill:#f7f7fb;">GIT</text><text x="2759.196px" y="1145.833px" style="font-family:'Consolas', monospace;font-size:50px;fill:#8f85ac;">NATIVE</text></g><g><path d="M3808.333,1033.333l0,133.333c0,13.798 -11.202,25 -25,25l-516.667,0c-13.798,0 -25,-11.202 -25,-25l0,-133.333c0,-13.798 11.202,-25 25,-25l516.667,0c13.798,0 25,11.202 25,25Z" style="fill:#15111f;stroke:#342753;stroke-width:4.17px;"/><text x="3447.111px" y="1100px" style="font-family:'Consolas-Bold', 'Consolas', monospace;font-weight:700;font-size:70.833px;fill:#7c3aed;">FREE</text><text x="3428.784px" y="1145.833px" style="font-family:'Consolas', monospace;font-size:50px;fill:#8f85ac;">FOREVER</text></g></g><text x="1535.066px" y="1350px" style="font-family:'GohuFont14NFM', 'GohuFont 14 Nerd Font Mono', monospace;font-weight:500;font-size:41.667px;fill:#fff;">E<tspan x="1559.495px 1583.923px 1608.352px 1632.781px 1657.209px 1681.638px 1706.067px 1730.496px 1754.924px 1779.353px 1803.782px 1828.21px 1852.639px 1877.068px 1901.497px 1925.925px 1950.354px 1974.783px 1999.211px 2023.64px 2048.069px 2072.498px 2096.926px 2121.355px 2145.784px 2170.212px 2194.641px 2219.07px 2243.499px 2267.927px 2292.356px 2316.785px 2341.213px 2365.642px 2390.071px 2414.5px 2438.928px 2463.357px 2487.786px 2512.214px 2536.643px 2561.072px 2585.5px 2609.929px 2634.358px 2658.787px 2683.215px 2707.644px 2732.073px 2756.501px 2780.93px 2805.359px 2829.788px 2854.216px 2878.645px 2903.074px 2927.502px 2951.931px 2976.36px 3000.789px 3025.217px 3049.646px 3074.075px 3098.503px 3122.932px 3147.361px 3171.79px 3196.218px 3220.647px 3245.076px 3269.504px 3293.933px 3318.362px 3342.791px 3367.219px 3391.648px 3416.077px 3440.505px " y="1350px 1350px 1350px 1350px 1350px 1350px 1350px 1350px 1350px 1350px 1350px 1350px 1350px 1350px 1350px 1350px 1350px 1350px 1350px 1350px 1350px 1350px 1350px 1350px 1350px 1350px 1350px 1350px 1350px 1350px 1350px 1350px 1350px 1350px 1350px 1350px 1350px 1350px 1350px 1350px 1350px 1350px 1350px 1350px 1350px 1350px 1350px 1350px 1350px 1350px 1350px 1350px 1350px 1350px 1350px 1350px 1350px 1350px 1350px 1350px 1350px 1350px 1350px 1350px 1350px 1350px 1350px 1350px 1350px 1350px 1350px 1350px 1350px 1350px 1350px 1350px 1350px 1350px ">VERY COURSE IS A REPO | EVERY UPDATE IS A COMMIT | EVERY LEARNER OWNS THE WORK</tspan></text><g id="Full-Logo---Horizontal" serif:id="Full Logo - Horizontal"><g id="Logo"><path d="M1553.237,297.689l152.755,84.086l0,241.615l-154.883,-87.279l2.129,-238.421Z" style="fill:#4c1bc9;stroke:#4c1bc9;stroke-width:8.33px;stroke-linecap:round;stroke-linejoin:round;stroke-miterlimit:1.5;"/><path d="M1881.794,297.689l-152.755,84.086l0,241.615l154.883,-87.279l-2.129,-238.421Z" style="fill:#4c1bc9;stroke:#4c1bc9;stroke-width:8.33px;stroke-linecap:round;stroke-linejoin:round;stroke-miterlimit:1.5;"/><path d="M1540.458,559.152l179.58,96.609l176.17,-98.882" style="fill:none;stroke:#4c1bc9;stroke-width:12.5px;stroke-linecap:round;stroke-linejoin:round;stroke-miterlimit:1.5;"/></g><g transform="matrix(1.410826,0,0,1.410826,327.250625,-476.540132)"><text x="1158.015px" y="719.298px" style="font-family:'Geist-ExtraBold', 'Geist';font-weight:800;font-size:166.667px;fill:#4c1bc9;">Op<tspan x="1395.515px 1497.182px " y="719.298px 719.298px ">en</tspan></text><g transform="matrix(166.666667,0,0,166.666667,2227.51546,719.298391)"></g><text x="1600.682px" y="719.298px" style="font-family:'Geist-Regular', 'Geist';font-size:166.667px;fill:#fff;">C<tspan x="1716.515px 1810.349px 1906.182px 1962.682px 2048.349px 2140.182px " y="719.298px 719.298px 719.298px 719.298px 719.298px 719.298px ">ourses</tspan></text></g></g><defs><linearGradient id="_Linear1" x1="0" y1="0" x2="1" y2="0" gradientUnits="userSpaceOnUse" gradientTransform="matrix(5000,1416.666667,-1416.666667,5000,0,0)"><stop offset="0" style="stop-color:#0d0f12;stop-opacity:1"/><stop offset="1" style="stop-color:#15111f;stop-opacity:1"/></linearGradient><radialGradient id="_Radial2" cx="0" cy="0" r="1" gradientUnits="userSpaceOnUse" gradientTransform="matrix(2036.666667,0,0,2036.666667,2500,343.333333)"><stop offset="0" style="stop-color:#4c1bc9;stop-opacity:0.18"/><stop offset="1" style="stop-color:#4c1bc9;stop-opacity:0"/></radialGradient><linearGradient id="_Linear3" x1="0" y1="0" x2="1" y2="0" gradientUnits="userSpaceOnUse" gradientTransform="matrix(5000,0,0,5000,0,0)"><stop offset="0" style="stop-color:#4c1bc9;stop-opacity:0"/><stop offset="0.3" style="stop-color:#4c1bc9;stop-opacity:0.92"/><stop offset="0.7" style="stop-color:#7c3aed;stop-opacity:0.8"/><stop offset="1" style="stop-color:#7c3aed;stop-opacity:0"/></linearGradient><linearGradient id="_Linear4" x1="0" y1="0" x2="1" y2="0" gradientUnits="userSpaceOnUse" gradientTransform="matrix(5000,0,0,5000,0,0)"><stop offset="0" style="stop-color:#4c1bc9;stop-opacity:0"/><stop offset="0.3" style="stop-color:#4c1bc9;stop-opacity:0.42"/><stop offset="0.7" style="stop-color:#7c3aed;stop-opacity:0.37"/><stop offset="1" style="stop-color:#7c3aed;stop-opacity:0"/></linearGradient><linearGradient id="_Linear5" x1="0" y1="0" x2="1" y2="0" gradientUnits="userSpaceOnUse" gradientTransform="matrix(5000,0,0,5000,0,0)"><stop offset="0" style="stop-color:#4c1bc9;stop-opacity:0"/><stop offset="0.3" style="stop-color:#4c1bc9;stop-opacity:0.66"/><stop offset="0.7" style="stop-color:#7c3aed;stop-opacity:0.58"/><stop offset="1" style="stop-color:#7c3aed;stop-opacity:0"/></linearGradient></defs></svg>